<svg width="39" height="38" viewBox="0 0 39 38" fill="none" xmlns="http://www.w3.org/2000/svg">
<path d="M15.0177 16.5778C14.845 16.5778 14.6878 16.5778 14.5237 16.5675L13.7223 16.5346L13.6964 15.733C13.6928 15.6232 13.6907 15.494 13.6907 15.3644C13.6907 12.0885 15.0168 9.12244 17.1615 6.97397L22.8613 1.27309C23.6401 0.486855 24.7199 0 25.9134 0C28.2839 0 30.206 1.92062 30.2091 4.2909V4.29128C30.2117 4.34714 30.2131 4.41264 30.2131 4.47856C30.2131 5.65819 29.7416 6.7277 28.9768 7.50874L23.2619 13.2246C21.1421 15.2984 18.2381 16.5779 15.0353 16.5779H15.0167H15.0177L15.0177 16.5778ZM25.8909 1.72045C25.1843 1.72721 24.5469 2.01794 24.0861 2.48382L18.3859 8.18511C16.6721 9.90062 15.5692 12.2268 15.4316 14.8093L15.4305 14.8346C18.0173 14.7314 20.3367 13.6653 22.0568 11.9873L22.0546 11.9893L27.7546 6.28824C28.2066 5.82236 28.4851 5.18607 28.4851 4.48476C28.4851 4.43911 28.4839 4.39383 28.4816 4.34873L28.4819 4.35504V4.3118C28.4819 2.8806 27.3218 1.72041 25.891 1.72041L25.8909 1.72045ZM19.5 30.117L0.752195 11.3674L1.97339 10.146L19.5 27.6741L37.0249 10.1442L38.2462 11.3656L19.5 30.117ZM1.9751 37.7477L0.753902 36.5264L13.9503 23.3274L15.1715 24.5489L1.9751 37.7477ZM37.0249 37.7477L23.8285 24.5489L25.0515 23.3258L38.2478 36.5246L37.0249 37.7477ZM38.5 38H0.5V9.89201H11.4164V11.6196H2.22726V36.2724H36.7727V11.6196H30.8827V9.89201H38.5L38.5 38Z" fill="black"/>
</svg>
