<svg width="414" height="605" viewBox="0 0 414 605" fill="none" xmlns="http://www.w3.org/2000/svg">
<rect width="287" height="48" transform="translate(109 499)" fill="#B9D58A"/>
<path d="M120.376 525.2C120.376 523.387 120.739 521.808 121.464 520.464C122.189 519.099 123.192 518.043 124.472 517.296C125.773 516.549 127.256 516.176 128.92 516.176C131.075 516.176 132.845 516.699 134.232 517.744C135.64 518.789 136.568 520.24 137.016 522.096H133.88C133.581 521.029 132.995 520.187 132.12 519.568C131.267 518.949 130.2 518.64 128.92 518.64C127.256 518.64 125.912 519.216 124.888 520.368C123.864 521.499 123.352 523.109 123.352 525.2C123.352 527.312 123.864 528.944 124.888 530.096C125.912 531.248 127.256 531.824 128.92 531.824C130.2 531.824 131.267 531.525 132.12 530.928C132.973 530.331 133.56 529.477 133.88 528.368H137.016C136.547 530.16 135.608 531.6 134.2 532.688C132.792 533.755 131.032 534.288 128.92 534.288C127.256 534.288 125.773 533.915 124.472 533.168C123.192 532.421 122.189 531.365 121.464 530C120.739 528.635 120.376 527.035 120.376 525.2ZM148.55 534.288C146.907 534.288 145.414 533.915 144.07 533.168C142.747 532.421 141.702 531.365 140.934 530C140.187 528.613 139.814 527.013 139.814 525.2C139.814 523.408 140.198 521.829 140.966 520.464C141.755 519.077 142.822 518.021 144.166 517.296C145.51 516.549 147.014 516.176 148.678 516.176C150.342 516.176 151.846 516.549 153.19 517.296C154.534 518.021 155.59 519.067 156.358 520.432C157.147 521.797 157.542 523.387 157.542 525.2C157.542 527.013 157.136 528.613 156.326 530C155.536 531.365 154.459 532.421 153.094 533.168C151.728 533.915 150.214 534.288 148.55 534.288ZM148.55 531.728C149.595 531.728 150.576 531.483 151.494 530.992C152.411 530.501 153.147 529.765 153.702 528.784C154.278 527.803 154.566 526.608 154.566 525.2C154.566 523.792 154.288 522.597 153.734 521.616C153.179 520.635 152.454 519.909 151.558 519.44C150.662 518.949 149.691 518.704 148.646 518.704C147.579 518.704 146.598 518.949 145.702 519.44C144.827 519.909 144.123 520.635 143.59 521.616C143.056 522.597 142.79 523.792 142.79 525.2C142.79 526.629 143.046 527.835 143.558 528.816C144.091 529.797 144.795 530.533 145.67 531.024C146.544 531.493 147.504 531.728 148.55 531.728ZM169.914 516.144C172.048 516.144 173.776 516.795 175.098 518.096C176.421 519.376 177.082 521.232 177.082 523.664V534H174.202V524.08C174.202 522.331 173.765 520.997 172.89 520.08C172.016 519.141 170.821 518.672 169.306 518.672C167.77 518.672 166.544 519.152 165.626 520.112C164.73 521.072 164.282 522.469 164.282 524.304V534H161.37V516.464H164.282V518.96C164.858 518.064 165.637 517.371 166.618 516.88C167.621 516.389 168.72 516.144 169.914 516.144ZM197.839 524.56C197.839 525.115 197.807 525.701 197.743 526.32H183.727C183.834 528.048 184.42 529.403 185.487 530.384C186.575 531.344 187.887 531.824 189.423 531.824C190.682 531.824 191.727 531.536 192.559 530.96C193.412 530.363 194.01 529.573 194.351 528.592H197.487C197.018 530.277 196.079 531.653 194.671 532.72C193.263 533.765 191.514 534.288 189.423 534.288C187.759 534.288 186.266 533.915 184.943 533.168C183.642 532.421 182.618 531.365 181.871 530C181.124 528.613 180.751 527.013 180.751 525.2C180.751 523.387 181.114 521.797 181.839 520.432C182.564 519.067 183.578 518.021 184.879 517.296C186.202 516.549 187.716 516.176 189.423 516.176C191.087 516.176 192.559 516.539 193.839 517.264C195.119 517.989 196.1 518.992 196.783 520.272C197.487 521.531 197.839 522.96 197.839 524.56ZM194.831 523.952C194.831 522.843 194.586 521.893 194.095 521.104C193.604 520.293 192.932 519.685 192.079 519.28C191.247 518.853 190.319 518.64 189.295 518.64C187.823 518.64 186.564 519.109 185.519 520.048C184.495 520.987 183.908 522.288 183.759 523.952H194.831ZM200.595 525.2C200.595 523.387 200.957 521.808 201.683 520.464C202.408 519.099 203.411 518.043 204.691 517.296C205.992 516.549 207.475 516.176 209.139 516.176C211.293 516.176 213.064 516.699 214.451 517.744C215.859 518.789 216.787 520.24 217.235 522.096H214.099C213.8 521.029 213.213 520.187 212.339 519.568C211.485 518.949 210.419 518.64 209.139 518.64C207.475 518.64 206.131 519.216 205.107 520.368C204.083 521.499 203.571 523.109 203.571 525.2C203.571 527.312 204.083 528.944 205.107 530.096C206.131 531.248 207.475 531.824 209.139 531.824C210.419 531.824 211.485 531.525 212.339 530.928C213.192 530.331 213.779 529.477 214.099 528.368H217.235C216.765 530.16 215.827 531.6 214.419 532.688C213.011 533.755 211.251 534.288 209.139 534.288C207.475 534.288 205.992 533.915 204.691 533.168C203.411 532.421 202.408 531.365 201.683 530C200.957 528.635 200.595 527.035 200.595 525.2ZM224.672 518.864V529.2C224.672 530.053 224.854 530.661 225.216 531.024C225.579 531.365 226.208 531.536 227.104 531.536H229.248V534H226.624C225.003 534 223.787 533.627 222.976 532.88C222.166 532.133 221.76 530.907 221.76 529.2V518.864H219.488V516.464H221.76V512.048H224.672V516.464H229.248V518.864H224.672ZM231.689 525.168C231.689 523.376 232.051 521.808 232.777 520.464C233.502 519.099 234.494 518.043 235.753 517.296C237.033 516.549 238.451 516.176 240.009 516.176C241.545 516.176 242.878 516.507 244.009 517.168C245.139 517.829 245.982 518.661 246.537 519.664V516.464H249.481V534H246.537V530.736C245.961 531.76 245.097 532.613 243.945 533.296C242.814 533.957 241.491 534.288 239.977 534.288C238.419 534.288 237.011 533.904 235.753 533.136C234.494 532.368 233.502 531.291 232.777 529.904C232.051 528.517 231.689 526.939 231.689 525.168ZM246.537 525.2C246.537 523.877 246.27 522.725 245.737 521.744C245.203 520.763 244.478 520.016 243.561 519.504C242.665 518.971 241.673 518.704 240.585 518.704C239.497 518.704 238.505 518.96 237.609 519.472C236.713 519.984 235.998 520.731 235.465 521.712C234.931 522.693 234.665 523.845 234.665 525.168C234.665 526.512 234.931 527.685 235.465 528.688C235.998 529.669 236.713 530.427 237.609 530.96C238.505 531.472 239.497 531.728 240.585 531.728C241.673 531.728 242.665 531.472 243.561 530.96C244.478 530.427 245.203 529.669 245.737 528.688C246.27 527.685 246.537 526.523 246.537 525.2Z" fill="#323232"/>
<path d="M262 523C262 509.745 272.745 499 286 499H396V547H286C272.745 547 262 536.255 262 523Z" fill="#323232"/>
<path d="M278.016 518.864V529.2C278.016 530.053 278.197 530.661 278.56 531.024C278.923 531.365 279.552 531.536 280.448 531.536H282.592V534H279.968C278.347 534 277.131 533.627 276.32 532.88C275.509 532.133 275.104 530.907 275.104 529.2V518.864H272.832V516.464H275.104V512.048H278.016V516.464H282.592V518.864H278.016ZM285.032 525.168C285.032 523.376 285.395 521.808 286.12 520.464C286.846 519.099 287.838 518.043 289.096 517.296C290.376 516.549 291.795 516.176 293.352 516.176C294.888 516.176 296.222 516.507 297.352 517.168C298.483 517.829 299.326 518.661 299.88 519.664V516.464H302.824V534H299.88V530.736C299.304 531.76 298.44 532.613 297.288 533.296C296.158 533.957 294.835 534.288 293.32 534.288C291.763 534.288 290.355 533.904 289.096 533.136C287.838 532.368 286.846 531.291 286.12 529.904C285.395 528.517 285.032 526.939 285.032 525.168ZM299.88 525.2C299.88 523.877 299.614 522.725 299.08 521.744C298.547 520.763 297.822 520.016 296.904 519.504C296.008 518.971 295.016 518.704 293.928 518.704C292.84 518.704 291.848 518.96 290.952 519.472C290.056 519.984 289.342 520.731 288.808 521.712C288.275 522.693 288.008 523.845 288.008 525.168C288.008 526.512 288.275 527.685 288.808 528.688C289.342 529.669 290.056 530.427 290.952 530.96C291.848 531.472 292.84 531.728 293.928 531.728C295.016 531.728 296.008 531.472 296.904 530.96C297.822 530.427 298.547 529.669 299.08 528.688C299.614 527.685 299.88 526.523 299.88 525.2ZM310.657 510.32V534H307.745V510.32H310.657ZM331.62 524.56C331.62 525.115 331.588 525.701 331.524 526.32H317.508C317.615 528.048 318.202 529.403 319.268 530.384C320.356 531.344 321.668 531.824 323.204 531.824C324.463 531.824 325.508 531.536 326.34 530.96C327.194 530.363 327.791 529.573 328.132 528.592H331.268C330.799 530.277 329.86 531.653 328.452 532.72C327.044 533.765 325.295 534.288 323.204 534.288C321.54 534.288 320.047 533.915 318.724 533.168C317.423 532.421 316.399 531.365 315.652 530C314.906 528.613 314.532 527.013 314.532 525.2C314.532 523.387 314.895 521.797 315.62 520.432C316.346 519.067 317.359 518.021 318.66 517.296C319.983 516.549 321.498 516.176 323.204 516.176C324.868 516.176 326.34 516.539 327.62 517.264C328.9 517.989 329.882 518.992 330.564 520.272C331.268 521.531 331.62 522.96 331.62 524.56ZM328.612 523.952C328.612 522.843 328.367 521.893 327.876 521.104C327.386 520.293 326.714 519.685 325.86 519.28C325.028 518.853 324.1 518.64 323.076 518.64C321.604 518.64 320.346 519.109 319.3 520.048C318.276 520.987 317.69 522.288 317.54 523.952H328.612ZM344.008 516.144C346.141 516.144 347.869 516.795 349.192 518.096C350.515 519.376 351.176 521.232 351.176 523.664V534H348.296V524.08C348.296 522.331 347.859 520.997 346.984 520.08C346.109 519.141 344.915 518.672 343.4 518.672C341.864 518.672 340.637 519.152 339.72 520.112C338.824 521.072 338.376 522.469 338.376 524.304V534H335.464V516.464H338.376V518.96C338.952 518.064 339.731 517.371 340.712 516.88C341.715 516.389 342.813 516.144 344.008 516.144ZM359.485 518.864V529.2C359.485 530.053 359.666 530.661 360.029 531.024C360.391 531.365 361.021 531.536 361.917 531.536H364.061V534H361.437C359.815 534 358.599 533.627 357.789 532.88C356.978 532.133 356.573 530.907 356.573 529.2V518.864H354.301V516.464H356.573V512.048H359.485V516.464H364.061V518.864H359.485ZM375.237 534.288C373.594 534.288 372.101 533.915 370.757 533.168C369.434 532.421 368.389 531.365 367.621 530C366.874 528.613 366.501 527.013 366.501 525.2C366.501 523.408 366.885 521.829 367.653 520.464C368.442 519.077 369.509 518.021 370.853 517.296C372.197 516.549 373.701 516.176 375.365 516.176C377.029 516.176 378.533 516.549 379.877 517.296C381.221 518.021 382.277 519.067 383.045 520.432C383.834 521.797 384.229 523.387 384.229 525.2C384.229 527.013 383.824 528.613 383.013 530C382.224 531.365 381.146 532.421 379.781 533.168C378.416 533.915 376.901 534.288 375.237 534.288ZM375.237 531.728C376.282 531.728 377.264 531.483 378.181 530.992C379.098 530.501 379.834 529.765 380.389 528.784C380.965 527.803 381.253 526.608 381.253 525.2C381.253 523.792 380.976 522.597 380.421 521.616C379.866 520.635 379.141 519.909 378.245 519.44C377.349 518.949 376.378 518.704 375.333 518.704C374.266 518.704 373.285 518.949 372.389 519.44C371.514 519.909 370.81 520.635 370.277 521.616C369.744 522.597 369.477 523.792 369.477 525.2C369.477 526.629 369.733 527.835 370.245 528.816C370.778 529.797 371.482 530.533 372.357 531.024C373.232 531.493 374.192 531.728 375.237 531.728Z" fill="#B9D58A"/>
<path d="M109 581C109 567.745 119.745 557 133 557H206V605H133C119.745 605 109 594.255 109 581Z" fill="#B9D58A"/>
<path d="M124.376 577.696C124.952 576.693 125.805 575.861 126.936 575.2C128.088 574.517 129.421 574.176 130.936 574.176C132.493 574.176 133.901 574.549 135.16 575.296C136.44 576.043 137.443 577.099 138.168 578.464C138.893 579.808 139.256 581.376 139.256 583.168C139.256 584.939 138.893 586.517 138.168 587.904C137.443 589.291 136.44 590.368 135.16 591.136C133.901 591.904 132.493 592.288 130.936 592.288C129.443 592.288 128.12 591.957 126.968 591.296C125.837 590.613 124.973 589.771 124.376 588.768V600.32H121.464V574.464H124.376V577.696ZM136.28 583.168C136.28 581.845 136.013 580.693 135.48 579.712C134.947 578.731 134.221 577.984 133.304 577.472C132.408 576.96 131.416 576.704 130.328 576.704C129.261 576.704 128.269 576.971 127.352 577.504C126.456 578.016 125.731 578.773 125.176 579.776C124.643 580.757 124.376 581.899 124.376 583.2C124.376 584.523 124.643 585.685 125.176 586.688C125.731 587.669 126.456 588.427 127.352 588.96C128.269 589.472 129.261 589.728 130.328 589.728C131.416 589.728 132.408 589.472 133.304 588.96C134.221 588.427 134.947 587.669 135.48 586.688C136.013 585.685 136.28 584.512 136.28 583.168ZM142.001 583.168C142.001 581.376 142.364 579.808 143.089 578.464C143.814 577.099 144.806 576.043 146.065 575.296C147.345 574.549 148.764 574.176 150.321 574.176C151.857 574.176 153.19 574.507 154.321 575.168C155.452 575.829 156.294 576.661 156.849 577.664V574.464H159.793V592H156.849V588.736C156.273 589.76 155.409 590.613 154.257 591.296C153.126 591.957 151.804 592.288 150.289 592.288C148.732 592.288 147.324 591.904 146.065 591.136C144.806 590.368 143.814 589.291 143.089 587.904C142.364 586.517 142.001 584.939 142.001 583.168ZM156.849 583.2C156.849 581.877 156.582 580.725 156.049 579.744C155.516 578.763 154.79 578.016 153.873 577.504C152.977 576.971 151.985 576.704 150.897 576.704C149.809 576.704 148.817 576.96 147.921 577.472C147.025 577.984 146.31 578.731 145.777 579.712C145.244 580.693 144.977 581.845 144.977 583.168C144.977 584.512 145.244 585.685 145.777 586.688C146.31 587.669 147.025 588.427 147.921 588.96C148.817 589.472 149.809 589.728 150.897 589.728C151.985 589.728 152.977 589.472 153.873 588.96C154.79 588.427 155.516 587.669 156.049 586.688C156.582 585.685 156.849 584.523 156.849 583.2ZM167.626 577.312C168.138 576.309 168.863 575.531 169.802 574.976C170.762 574.421 171.925 574.144 173.29 574.144V577.152H172.522C169.258 577.152 167.626 578.923 167.626 582.464V592H164.714V574.464H167.626V577.312ZM175.564 583.168C175.564 581.376 175.926 579.808 176.652 578.464C177.377 577.099 178.369 576.043 179.628 575.296C180.908 574.549 182.326 574.176 183.884 574.176C185.42 574.176 186.753 574.507 187.884 575.168C189.014 575.829 189.857 576.661 190.412 577.664V574.464H193.356V592H190.412V588.736C189.836 589.76 188.972 590.613 187.82 591.296C186.689 591.957 185.366 592.288 183.852 592.288C182.294 592.288 180.886 591.904 179.628 591.136C178.369 590.368 177.377 589.291 176.652 587.904C175.926 586.517 175.564 584.939 175.564 583.168ZM190.412 583.2C190.412 581.877 190.145 580.725 189.612 579.744C189.078 578.763 188.353 578.016 187.436 577.504C186.54 576.971 185.548 576.704 184.46 576.704C183.372 576.704 182.38 576.96 181.484 577.472C180.588 577.984 179.873 578.731 179.34 579.712C178.806 580.693 178.54 581.845 178.54 583.168C178.54 584.512 178.806 585.685 179.34 586.688C179.873 587.669 180.588 588.427 181.484 588.96C182.38 589.472 183.372 589.728 184.46 589.728C185.548 589.728 186.54 589.472 187.436 588.96C188.353 588.427 189.078 587.669 189.612 586.688C190.145 585.685 190.412 584.523 190.412 583.2Z" fill="#323232"/>
<rect x="211" y="557" width="192" height="48" rx="24" fill="#B9D58A"/>
<rect x="211" y="557" width="105" height="48" rx="24" fill="#323232"/>
<path d="M222.376 583.2C222.376 581.387 222.739 579.808 223.464 578.464C224.189 577.099 225.192 576.043 226.472 575.296C227.773 574.549 229.256 574.176 230.92 574.176C233.075 574.176 234.845 574.699 236.232 575.744C237.64 576.789 238.568 578.24 239.016 580.096H235.88C235.581 579.029 234.995 578.187 234.12 577.568C233.267 576.949 232.2 576.64 230.92 576.64C229.256 576.64 227.912 577.216 226.888 578.368C225.864 579.499 225.352 581.109 225.352 583.2C225.352 585.312 225.864 586.944 226.888 588.096C227.912 589.248 229.256 589.824 230.92 589.824C232.2 589.824 233.267 589.525 234.12 588.928C234.973 588.331 235.56 587.477 235.88 586.368H239.016C238.547 588.16 237.608 589.6 236.2 590.688C234.792 591.755 233.032 592.288 230.92 592.288C229.256 592.288 227.773 591.915 226.472 591.168C225.192 590.421 224.189 589.365 223.464 588C222.739 586.635 222.376 585.035 222.376 583.2ZM245.814 577.312C246.326 576.309 247.051 575.531 247.99 574.976C248.95 574.421 250.112 574.144 251.478 574.144V577.152H250.71C247.446 577.152 245.814 578.923 245.814 582.464V592H242.902V574.464H245.814V577.312ZM270.839 582.56C270.839 583.115 270.807 583.701 270.743 584.32H256.727C256.834 586.048 257.42 587.403 258.487 588.384C259.575 589.344 260.887 589.824 262.423 589.824C263.682 589.824 264.727 589.536 265.559 588.96C266.412 588.363 267.01 587.573 267.351 586.592H270.487C270.018 588.277 269.079 589.653 267.671 590.72C266.263 591.765 264.514 592.288 262.423 592.288C260.759 592.288 259.266 591.915 257.943 591.168C256.642 590.421 255.618 589.365 254.871 588C254.124 586.613 253.751 585.013 253.751 583.2C253.751 581.387 254.114 579.797 254.839 578.432C255.564 577.067 256.578 576.021 257.879 575.296C259.202 574.549 260.716 574.176 262.423 574.176C264.087 574.176 265.559 574.539 266.839 575.264C268.119 575.989 269.1 576.992 269.783 578.272C270.487 579.531 270.839 580.96 270.839 582.56ZM267.831 581.952C267.831 580.843 267.586 579.893 267.095 579.104C266.604 578.293 265.932 577.685 265.079 577.28C264.247 576.853 263.319 576.64 262.295 576.64C260.823 576.64 259.564 577.109 258.519 578.048C257.495 578.987 256.908 580.288 256.759 581.952H267.831ZM273.595 583.168C273.595 581.376 273.957 579.808 274.683 578.464C275.408 577.099 276.4 576.043 277.659 575.296C278.939 574.549 280.357 574.176 281.915 574.176C283.451 574.176 284.784 574.507 285.915 575.168C287.045 575.829 287.888 576.661 288.443 577.664V574.464H291.387V592H288.443V588.736C287.867 589.76 287.003 590.613 285.851 591.296C284.72 591.957 283.397 592.288 281.883 592.288C280.325 592.288 278.917 591.904 277.659 591.136C276.4 590.368 275.408 589.291 274.683 587.904C273.957 586.517 273.595 584.939 273.595 583.168ZM288.443 583.2C288.443 581.877 288.176 580.725 287.643 579.744C287.109 578.763 286.384 578.016 285.467 577.504C284.571 576.971 283.579 576.704 282.491 576.704C281.403 576.704 280.411 576.96 279.515 577.472C278.619 577.984 277.904 578.731 277.371 579.712C276.837 580.693 276.571 581.845 276.571 583.168C276.571 584.512 276.837 585.685 277.371 586.688C277.904 587.669 278.619 588.427 279.515 588.96C280.411 589.472 281.403 589.728 282.491 589.728C283.579 589.728 284.571 589.472 285.467 588.96C286.384 588.427 287.109 587.669 287.643 586.688C288.176 585.685 288.443 584.523 288.443 583.2ZM299.22 577.312C299.732 576.309 300.457 575.531 301.396 574.976C302.356 574.421 303.518 574.144 304.884 574.144V577.152H304.116C300.852 577.152 299.22 578.923 299.22 582.464V592H296.308V574.464H299.22V577.312Z" fill="#B9D58A"/>
<path d="M322.376 583.168C322.376 581.376 322.739 579.808 323.464 578.464C324.189 577.099 325.181 576.043 326.44 575.296C327.72 574.549 329.139 574.176 330.696 574.176C332.232 574.176 333.565 574.507 334.696 575.168C335.827 575.829 336.669 576.661 337.224 577.664V574.464H340.168V592H337.224V588.736C336.648 589.76 335.784 590.613 334.632 591.296C333.501 591.957 332.179 592.288 330.664 592.288C329.107 592.288 327.699 591.904 326.44 591.136C325.181 590.368 324.189 589.291 323.464 587.904C322.739 586.517 322.376 584.939 322.376 583.168ZM337.224 583.2C337.224 581.877 336.957 580.725 336.424 579.744C335.891 578.763 335.165 578.016 334.248 577.504C333.352 576.971 332.36 576.704 331.272 576.704C330.184 576.704 329.192 576.96 328.296 577.472C327.4 577.984 326.685 578.731 326.152 579.712C325.619 580.693 325.352 581.845 325.352 583.168C325.352 584.512 325.619 585.685 326.152 586.688C326.685 587.669 327.4 588.427 328.296 588.96C329.192 589.472 330.184 589.728 331.272 589.728C332.36 589.728 333.352 589.472 334.248 588.96C335.165 588.427 335.891 587.669 336.424 586.688C336.957 585.685 337.224 584.523 337.224 583.2ZM348.001 577.312C348.513 576.309 349.238 575.531 350.177 574.976C351.137 574.421 352.3 574.144 353.665 574.144V577.152H352.897C349.633 577.152 348.001 578.923 348.001 582.464V592H345.089V574.464H348.001V577.312ZM360.579 576.864V587.2C360.579 588.053 360.76 588.661 361.123 589.024C361.485 589.365 362.115 589.536 363.01 589.536H365.155V592H362.531C360.909 592 359.693 591.627 358.883 590.88C358.072 590.133 357.667 588.907 357.667 587.2V576.864H355.395V574.464H357.667V570.048H360.579V574.464H365.155V576.864H360.579ZM384.683 582.56C384.683 583.115 384.651 583.701 384.587 584.32H370.571C370.677 586.048 371.264 587.403 372.331 588.384C373.419 589.344 374.731 589.824 376.267 589.824C377.525 589.824 378.571 589.536 379.403 588.96C380.256 588.363 380.853 587.573 381.195 586.592H384.331C383.861 588.277 382.923 589.653 381.515 590.72C380.107 591.765 378.357 592.288 376.267 592.288C374.603 592.288 373.109 591.915 371.787 591.168C370.485 590.421 369.461 589.365 368.715 588C367.968 586.613 367.595 585.013 367.595 583.2C367.595 581.387 367.957 579.797 368.683 578.432C369.408 577.067 370.421 576.021 371.723 575.296C373.045 574.549 374.56 574.176 376.267 574.176C377.931 574.176 379.403 574.539 380.683 575.264C381.963 575.989 382.944 576.992 383.627 578.272C384.331 579.531 384.683 580.96 384.683 582.56ZM381.675 581.952C381.675 580.843 381.429 579.893 380.939 579.104C380.448 578.293 379.776 577.685 378.923 577.28C378.091 576.853 377.163 576.64 376.139 576.64C374.667 576.64 373.408 577.109 372.363 578.048C371.339 578.987 370.752 580.288 370.603 581.952H381.675ZM389.455 592.192C388.9 592.192 388.431 592 388.047 591.616C387.663 591.232 387.471 590.763 387.471 590.208C387.471 589.653 387.663 589.184 388.047 588.8C388.431 588.416 388.9 588.224 389.455 588.224C389.988 588.224 390.436 588.416 390.799 588.8C391.183 589.184 391.375 589.653 391.375 590.208C391.375 590.763 391.183 591.232 390.799 591.616C390.436 592 389.988 592.192 389.455 592.192Z" fill="#323232"/>
</svg>
