<svg width="25" height="27" viewBox="0 0 25 27" fill="none" xmlns="http://www.w3.org/2000/svg">
<path d="M7.25 0.5H17.75C21.75 0.5 25 3.88 25 8.04V18.96C25 20.9597 24.2362 22.8776 22.8765 24.2916C21.5169 25.7056 19.6728 26.5 17.75 26.5H7.25C3.25 26.5 0 23.12 0 18.96V8.04C0 6.04027 0.763837 4.12244 2.12348 2.70841C3.48311 1.29439 5.32718 0.5 7.25 0.5ZM7 3.1C5.80653 3.1 4.66193 3.59307 3.81802 4.47074C2.97411 5.34841 2.5 6.53879 2.5 7.78V19.22C2.5 21.807 4.5125 23.9 7 23.9H18C19.1935 23.9 20.3381 23.4069 21.182 22.5293C22.0259 21.6516 22.5 20.4612 22.5 19.22V7.78C22.5 5.193 20.4875 3.1 18 3.1H7ZM19.0625 5.05C19.4769 5.05 19.8743 5.2212 20.1674 5.52595C20.4604 5.8307 20.625 6.24402 20.625 6.675C20.625 7.10598 20.4604 7.5193 20.1674 7.82405C19.8743 8.12879 19.4769 8.3 19.0625 8.3C18.6481 8.3 18.2507 8.12879 17.9576 7.82405C17.6646 7.5193 17.5 7.10598 17.5 6.675C17.5 6.24402 17.6646 5.8307 17.9576 5.52595C18.2507 5.2212 18.6481 5.05 19.0625 5.05ZM12.5 7C14.1576 7 15.7473 7.68482 16.9194 8.90381C18.0915 10.1228 18.75 11.7761 18.75 13.5C18.75 15.2239 18.0915 16.8772 16.9194 18.0962C15.7473 19.3152 14.1576 20 12.5 20C10.8424 20 9.25269 19.3152 8.08058 18.0962C6.90848 16.8772 6.25 15.2239 6.25 13.5C6.25 11.7761 6.90848 10.1228 8.08058 8.90381C9.25269 7.68482 10.8424 7 12.5 7ZM12.5 9.6C11.5054 9.6 10.5516 10.0109 9.84835 10.7423C9.14509 11.4737 8.75 12.4657 8.75 13.5C8.75 14.5343 9.14509 15.5263 9.84835 16.2577C10.5516 16.9891 11.5054 17.4 12.5 17.4C13.4946 17.4 14.4484 16.9891 15.1517 16.2577C15.8549 15.5263 16.25 14.5343 16.25 13.5C16.25 12.4657 15.8549 11.4737 15.1517 10.7423C14.4484 10.0109 13.4946 9.6 12.5 9.6Z" fill="black"/>
</svg>
