<svg width="40" height="29" viewBox="0 0 40 29" fill="none" xmlns="http://www.w3.org/2000/svg">
<path d="M0.981445 0.852661H39.0185V10.8443H38.154C37.0267 10.8502 36.0097 11.3178 35.2815 12.0674L35.2805 12.0683L35.2667 12.0839C34.5351 12.8103 34.0802 13.8145 34.0737 14.925V14.9263C34.0757 17.179 35.9014 19.0046 38.1539 19.0066H39.0186V29H0.98152V19.0084H1.84601C2.95863 19.0019 3.9636 18.5463 4.68987 17.8139L4.69013 17.8136C5.40934 17.0785 5.85316 16.0715 5.85316 14.9609C5.85316 13.8502 5.40934 12.8431 4.68939 12.1074L4.69013 12.1081C3.96334 11.376 2.95841 10.9211 1.84709 10.9151H0.981445V0.852661ZM37.2896 2.5816H2.71042V9.25535C5.48913 9.70689 7.58473 12.0892 7.58473 14.9609C7.58473 17.8326 5.48917 20.2149 2.74378 20.662L2.71046 20.6665V27.2711H37.2896V20.6717C34.4938 20.2161 32.3857 17.8187 32.3857 14.929C32.3857 12.0392 34.4937 9.64178 37.256 9.19072L37.2895 9.18619L37.2896 2.5816ZM16.6925 9.10324C16.7997 9.10324 16.9086 9.10324 17.0158 9.11532C17.0433 9.11472 17.0756 9.11439 17.108 9.11439C18.2046 9.11439 19.2129 9.49253 20.0096 10.1255L20 10.1181C20.7859 9.49253 21.7931 9.11431 22.8885 9.11431C22.9222 9.11431 22.9557 9.11468 22.9892 9.11543L22.9842 9.11532C23.0914 9.11532 23.2003 9.10321 23.3075 9.10321C25.4601 9.10425 27.2315 10.7347 27.4554 12.8281L27.4569 12.8464V12.9363C27.4569 17.9226 20.5843 20.5437 20.2904 20.6613L20 20.7772L19.6974 20.6648C19.4052 20.5558 12.5291 17.9434 12.5291 12.938V12.8481C12.7538 10.735 14.5267 9.10321 16.6807 9.10321H16.693H16.6924L16.6925 9.10324ZM16.9657 10.8459H16.9138C16.8395 10.8459 16.7651 10.8355 16.6925 10.8355H16.6897C15.4431 10.8355 14.414 11.7674 14.2612 12.9725L14.2599 12.9847C14.2944 16.2731 18.7794 18.4014 20 18.9201C21.2103 18.4014 25.7055 16.2506 25.7418 12.9847C25.5893 11.7657 24.5595 10.8321 23.3116 10.8321H23.3091H23.3092C23.2366 10.8321 23.1605 10.8321 23.0878 10.8425H22.9841C22.9571 10.8415 22.9254 10.841 22.8935 10.841C22.0008 10.841 21.201 11.239 20.662 11.8672L20.6586 11.8711L20 12.6441L19.343 11.8747C18.8004 11.2376 17.9976 10.8361 17.101 10.8361C17.0716 10.8361 17.0424 10.8366 17.0132 10.8375L17.0175 10.8373L16.9657 10.8459Z" fill="black"/>
</svg>
