<svg width="180" height="182" viewBox="0 0 180 182" fill="none" xmlns="http://www.w3.org/2000/svg">
<g filter="url(#filter0_d_254_545)">
<path d="M32.8831 143.554L40.2656 157.948L47.6242 143.554C58.6527 142.394 72.7872 140.895 89.239 139.106C131.521 134.501 133.826 134 137.721 131.589C153.961 121.515 158.268 97.815 166.882 50.4265C167.385 47.6649 168.368 41.8456 166.112 35.3192C163.412 27.5116 157.564 23.0218 155.313 21.2936C141.786 10.9118 120.129 11.4496 89.2997 9.5884C51.1791 7.28605 38.6461 3.70871 28.5213 13.4318C22.7704 18.961 20.5865 26.1219 19.6463 31.222C16.6131 51.5807 14.957 68.9177 14.0107 82.1336C11.5842 115.63 13.2827 128.175 21.7816 136.617C24.9388 139.697 28.7252 142.063 32.8831 143.554Z" stroke="white" stroke-width="10" stroke-miterlimit="10"/>
</g>
<path d="M54.8727 39.6465C57.2438 39.8412 59.4281 40.2292 61.4254 40.81C63.4355 41.3799 65.2657 42.0542 66.9161 42.8329L66.4338 48.795C65.7954 48.3614 65.0679 47.9325 64.2513 47.5082C63.4467 47.0849 62.5622 46.6966 61.5982 46.3435C60.6341 45.9906 59.5954 45.6848 58.4819 45.4267C57.3683 45.1685 56.1895 44.9882 54.9451 44.8862C53.3956 44.7587 52.0365 44.7604 50.868 44.8905C49.6994 45.0209 48.689 45.2415 47.8366 45.5525C46.9843 45.8637 46.2734 46.2518 45.7041 46.717C45.1357 47.1704 44.6758 47.6685 44.3247 48.2114C43.9735 48.7541 43.7154 49.3163 43.5502 49.8983C43.3849 50.48 43.2798 51.049 43.2349 51.605C43.1956 52.0899 43.2 52.6203 43.2479 53.1958C43.3076 53.7722 43.4496 54.3554 43.6736 54.9456C43.9095 55.5364 44.2529 56.1125 44.7037 56.6734C45.1547 57.2344 45.7571 57.7483 46.5111 58.2152C47.2767 58.683 48.2071 59.0868 49.3023 59.4268C50.3984 59.7551 51.7152 59.9823 53.2531 60.1086C54.0277 60.1722 54.7046 60.2041 55.2837 60.204C55.8626 60.204 56.3903 60.1817 56.8666 60.1376C57.3545 60.0942 57.8088 60.0304 58.2292 59.9458C58.6614 59.8621 59.1057 59.7737 59.5623 59.6802L59.8005 56.7347L52.4755 56.1329L52.9075 50.7919L66.7652 51.9302L65.7576 64.3868C64.865 64.6112 63.8687 64.8031 62.7686 64.9628C61.6812 65.1118 60.5556 65.2217 59.3919 65.2928C58.239 65.3767 57.0833 65.4188 55.9254 65.419C54.7672 65.419 53.6776 65.3772 52.6564 65.2932C51.0717 65.163 49.5601 64.9317 48.1217 64.5993C46.6833 64.2668 45.3479 63.8296 44.1156 63.2878C42.8959 62.7351 41.7915 62.0728 40.8021 61.3009C39.8247 60.5299 39.0044 59.6408 38.3414 58.6338C37.6902 57.6274 37.2084 56.4984 36.896 55.2462C36.5964 53.9832 36.5083 52.5885 36.6319 51.0625C36.7544 49.5484 37.0765 48.1935 37.5986 46.998C38.1207 45.8024 38.7957 44.7622 39.6235 43.8776C40.4631 42.9938 41.4389 42.2524 42.5509 41.6532C43.6747 41.0547 44.888 40.5887 46.1913 40.2552C47.5072 39.9107 48.8956 39.6914 50.3568 39.5971C51.8295 39.5038 53.3348 39.5202 54.8727 39.6465ZM99.7678 67.2876C97.7303 67.7871 95.7083 68.0974 93.7014 68.2183C91.7055 68.3521 89.6744 68.334 87.6083 68.1643C84.9671 67.9474 82.6365 67.4701 80.6165 66.7327C78.609 65.9843 76.9451 65.0081 75.6245 63.8039C74.3039 62.6 73.3373 61.1809 72.7251 59.5467C72.1127 57.9127 71.887 56.1019 72.0478 54.1146C72.197 52.2691 72.705 50.5903 73.5719 49.0777C74.4515 47.5542 75.6189 46.2688 77.0744 45.2212C78.5425 44.163 80.2714 43.388 82.2608 42.8965C84.2513 42.3931 86.4381 42.2395 88.8209 42.4351C91.0162 42.6154 92.9991 43.0819 94.7698 43.8348C96.5532 44.5766 98.0491 45.5867 99.2573 46.8649C100.477 48.1439 101.376 49.6706 101.953 51.4448C102.542 53.2197 102.746 55.2252 102.566 57.461L102.433 59.0935L78.5922 57.135C78.7413 57.9213 79.0307 58.6536 79.4602 59.332C79.9016 60.0113 80.5208 60.61 81.3179 61.1279C82.115 61.6458 83.1081 62.0788 84.297 62.4264C85.4979 62.7752 86.9433 63.0189 88.6337 63.1578C89.8311 63.2561 91.0108 63.2816 92.1726 63.2342C93.3354 63.1748 94.4254 63.068 95.4422 62.9134C96.4602 62.7467 97.3801 62.5486 98.2023 62.3183C99.0363 62.0892 99.7116 61.8469 100.229 61.5917L99.7678 67.2876ZM96.3265 53.7332C96.3167 53.1251 96.185 52.4892 95.9314 51.8252C95.6906 51.1505 95.2684 50.5265 94.6649 49.953C94.0614 49.3794 93.2506 48.8841 92.2326 48.467C91.2156 48.0382 89.9264 47.7596 88.3652 47.6313C86.8979 47.5108 85.6153 47.5899 84.5174 47.869C83.4195 48.148 82.4847 48.5297 81.7128 49.0141C80.9528 49.4994 80.3479 50.0392 79.898 50.6333C79.4483 51.2274 79.1431 51.7858 78.9826 52.3085L96.3265 53.7332ZM130.643 71.0383L131.748 57.3753C131.822 56.4643 131.812 55.6359 131.719 54.89C131.626 54.1321 131.39 53.4756 131.009 52.9205C130.642 52.3545 130.093 51.8985 129.365 51.5529C128.65 51.1965 127.705 50.97 126.531 50.8736C125.639 50.8003 124.69 50.8473 123.683 51.0147C122.69 51.1713 121.696 51.4112 120.701 51.7343C119.706 52.0575 118.746 52.4491 117.823 52.909C116.911 53.3701 116.091 53.8623 115.364 54.3861L114.126 69.6816L107.594 69.1451L109.566 44.7644L116.098 45.3009L115.829 48.6369C116.689 48.2313 117.601 47.8358 118.566 47.4506C119.531 47.0536 120.552 46.7087 121.627 46.4161C122.703 46.1233 123.837 45.9069 125.03 45.7667C126.223 45.6265 127.471 45.6099 128.774 45.7169C130.406 45.8509 131.845 46.1716 133.092 46.6789C134.351 47.1754 135.398 47.8269 136.23 48.6338C137.064 49.4286 137.674 50.3659 138.059 51.4455C138.457 52.5142 138.605 53.6873 138.501 54.9649L137.158 71.5736L130.643 71.0383ZM57.5117 101.247C57.5016 99.9127 57.2784 98.7273 56.8422 97.6913C56.4071 96.6434 55.8253 95.7262 55.0972 94.9401C54.3808 94.1548 53.5488 93.4852 52.6011 92.931C51.6651 92.3777 50.6914 91.9226 49.6805 91.5657C48.6704 91.1969 47.6531 90.9169 46.6289 90.7256C45.6171 90.5234 44.6711 90.3862 43.7906 90.3138L41.8537 90.1546L41.0659 99.8963L34.5332 99.3598L36.5052 74.979L43.0379 75.5156L42.2772 84.9201L43.6154 85.0301C44.5193 85.1043 45.47 85.111 46.4675 85.0499C47.465 84.989 48.4576 84.8443 49.445 84.6159C50.4441 84.3883 51.4095 84.0686 52.3409 83.6569C53.2722 83.2451 54.1183 82.7193 54.879 82.0791C55.6399 81.439 56.2919 80.6828 56.8352 79.8107C57.3793 78.9265 57.7574 77.9036 57.9696 76.7421L64.6255 77.2888C64.4037 78.5686 64.0513 79.7126 63.5679 80.7209C63.0963 81.73 62.5335 82.6245 61.8797 83.4044C61.2384 84.1734 60.5348 84.8361 59.7691 85.3925C59.0033 85.9487 58.2265 86.4209 57.4388 86.8086C56.6523 87.1845 55.8713 87.4895 55.0961 87.7236C54.3336 87.9468 53.6232 88.1086 52.9652 88.2095C53.7764 88.4071 54.6107 88.684 55.4682 89.0402C56.3382 89.3857 57.189 89.8247 58.0204 90.3574C58.8526 90.8782 59.6352 91.5022 60.3682 92.2293C61.1128 92.9572 61.7663 93.7909 62.3283 94.7303C62.8906 95.6695 63.3369 96.7244 63.6677 97.8948C63.9984 99.065 64.1651 100.365 64.1676 101.794L57.5117 101.247ZM102.076 92.6544C101.907 94.7484 101.376 96.5683 100.483 98.1144C99.5904 99.6487 98.3906 100.896 96.8831 101.856C95.3757 102.815 93.584 103.49 91.5083 103.879C89.4452 104.257 87.1517 104.343 84.6279 104.136C82.1041 103.928 79.843 103.469 77.8444 102.757C75.8586 102.034 74.1931 101.075 72.8481 99.8813C71.5031 98.6872 70.5078 97.2598 69.8621 95.5992C69.2175 93.9267 68.9798 92.0435 69.1492 89.9497C69.3187 87.856 69.8552 86.0422 70.7592 84.5088C71.6641 82.9638 72.8762 81.7117 74.3952 80.7528C75.9145 79.7941 77.7116 79.1259 79.7864 78.7486C81.8738 78.3604 84.1795 78.27 86.7033 78.4773C89.2272 78.6846 91.4761 79.1491 93.4503 79.871C95.437 80.582 97.097 81.534 98.4304 82.7272C99.7637 83.9204 100.747 85.3527 101.38 87.0241C102.013 88.6838 102.246 90.5606 102.076 92.6544ZM95.4733 92.1121C95.547 91.2013 95.4735 90.2841 95.2526 89.3611C95.0446 88.4269 94.6001 87.5688 93.9188 86.7864C93.2495 86.005 92.299 85.3376 91.0676 84.7839C89.8362 84.2303 88.2402 83.8728 86.2799 83.7118C84.9651 83.6039 83.8003 83.6154 82.7852 83.7463C81.7713 83.8655 80.8855 84.0784 80.1281 84.3854C79.3705 84.6924 78.7252 85.074 78.1921 85.5303C77.6598 85.9748 77.2238 86.469 76.8845 87.0126C76.546 87.5446 76.2875 88.1128 76.1086 88.7174C75.9423 89.3109 75.8354 89.9036 75.7875 90.495C75.7386 91.0983 75.748 91.7124 75.8157 92.3372C75.8951 92.9629 76.0586 93.5718 76.3061 94.1637C76.5547 94.7438 76.9058 95.2966 77.3595 95.8221C77.8134 96.3475 78.3892 96.8235 79.0875 97.2501C79.7865 97.6647 80.6263 98.0195 81.607 98.3144C82.5884 98.5975 83.7366 98.793 85.0514 98.9011C87.0117 99.0621 88.644 98.9698 89.9481 98.6245C91.2523 98.2791 92.2974 97.7755 93.0836 97.1136C93.8814 96.4527 94.4576 95.6845 94.8121 94.8085C95.1792 93.9218 95.3997 93.0228 95.4733 92.1121ZM127.557 107.001L127.751 104.606C126.88 104.998 125.949 105.333 124.957 105.609C123.978 105.885 122.961 106.106 121.908 106.269C120.855 106.433 119.772 106.528 118.659 106.556C117.557 106.596 116.448 106.571 115.333 106.479C114.03 106.372 112.778 106.144 111.577 105.796C110.389 105.448 109.347 104.957 108.453 104.324C107.559 103.691 106.86 102.901 106.358 101.955C105.867 101.01 105.675 99.8864 105.78 98.5853C105.913 96.9409 106.469 95.6112 107.45 94.5963C108.431 93.5694 109.865 92.7822 111.753 92.2347C113.641 91.6871 115.996 91.3389 118.821 91.1898C121.657 91.0417 124.997 91.0184 128.841 91.1198L128.883 90.6051C128.915 90.203 128.842 89.7981 128.662 89.3902C128.483 88.9708 128.124 88.5899 127.585 88.2479C127.058 87.895 126.315 87.584 125.356 87.3147C124.409 87.0463 123.184 86.8504 121.681 86.7269C120.496 86.6296 119.316 86.5982 118.144 86.6329C116.984 86.6568 115.855 86.7308 114.758 86.8549C113.673 86.9802 112.637 87.1452 111.651 87.3499C110.666 87.5548 109.768 87.7787 108.956 88.0217L109.43 82.166C110.269 82.0206 111.207 81.8893 112.244 81.7721C113.282 81.6549 114.358 81.5706 115.473 81.5192C116.589 81.4562 117.714 81.4294 118.848 81.4392C119.982 81.4372 121.066 81.4786 122.099 81.5633C124.13 81.7302 125.988 82.0556 127.674 82.5394C129.361 83.0114 130.792 83.6529 131.967 84.4638C133.154 85.2758 134.05 86.2544 134.655 87.3997C135.271 88.5458 135.518 89.8701 135.397 91.3724L134.089 107.538L127.557 107.001ZM128.457 95.8752C125.937 95.7636 123.789 95.7241 122.014 95.7569C120.251 95.7906 118.779 95.8781 117.597 96.0192C116.416 96.1603 115.48 96.3395 114.789 96.5566C114.109 96.7747 113.594 97.0122 113.242 97.2691C112.891 97.526 112.662 97.793 112.557 98.0701C112.464 98.3483 112.407 98.6058 112.388 98.8424C112.365 99.1262 112.419 99.4105 112.55 99.695C112.681 99.9679 112.927 100.22 113.286 100.452C113.657 100.685 114.155 100.887 114.779 101.057C115.403 101.227 116.197 101.352 117.159 101.431C118.228 101.519 119.279 101.522 120.314 101.44C121.349 101.359 122.335 101.213 123.274 101.005C124.213 100.784 125.098 100.512 125.928 100.187C126.77 99.8511 127.527 99.4845 128.197 99.087L128.457 95.8752Z" fill="white"/>
<defs>
<filter id="filter0_d_254_545" x="4" y="2" width="172.533" height="174.918" filterUnits="userSpaceOnUse" color-interpolation-filters="sRGB">
<feFlood flood-opacity="0" result="BackgroundImageFix"/>
<feColorMatrix in="SourceAlpha" type="matrix" values="0 0 0 0 0 0 0 0 0 0 0 0 0 0 0 0 0 0 127 0" result="hardAlpha"/>
<feOffset dy="4"/>
<feGaussianBlur stdDeviation="2"/>
<feComposite in2="hardAlpha" operator="out"/>
<feColorMatrix type="matrix" values="0 0 0 0 0 0 0 0 0 0 0 0 0 0 0 0 0 0 0.25 0"/>
<feBlend mode="normal" in2="BackgroundImageFix" result="effect1_dropShadow_254_545"/>
<feBlend mode="normal" in="SourceGraphic" in2="effect1_dropShadow_254_545" result="shape"/>
</filter>
</defs>
</svg>
