<svg id="Capa_1" data-name="Capa 1" xmlns="http://www.w3.org/2000/svg" viewBox="0 0 1440.04 481.32"><defs><style>.cls-1{fill:#3f3f3f;}</style></defs><path class="cls-1" d="M474.51,191.12l0-.64h0l0-32.58-3.49,0-8.49.08-13.47.13-.28,7.66a62,62,0,0,1-2.08,13.86,56.7,56.7,0,0,1-36.2,13.08H410a55.82,55.82,0,0,1-21-4,56.78,56.78,0,0,1-18-11.49,55.42,55.42,0,0,1-12.33-17.46,55.53,55.53,0,0,1-.42-43.65,56.31,56.31,0,0,1,7.78-13,64,64,0,0,1,14.67-2.48l7.29-.38L387.9,86.6l-.09-8.35,0-3.74-7.81.34-26-.11-4.74,0-37.48-.17v0l-7,.06a166.57,166.57,0,0,0-65.59,13.68,171.84,171.84,0,0,0-53,35.84,166.67,166.67,0,0,0-35.47,52.68,159.33,159.33,0,0,0-12.63,64.72,161,161,0,0,0,13.71,64.44,165.26,165.26,0,0,0,36.32,52,172.17,172.17,0,0,0,185.25,33.25,170.62,170.62,0,0,0,53-35.84,168.63,168.63,0,0,0,35.5-52.72,158.81,158.81,0,0,0,12.69-64.72l-.07-6.45h0Q474.51,211.3,474.51,191.12ZM394.42,323.81a123,123,0,0,1-38.9,25.81,126.14,126.14,0,0,1-48.07,9.65,122.36,122.36,0,0,1-47.14-8.75,123.73,123.73,0,0,1-39.21-25,119.59,119.59,0,0,1-26.65-37.75,119.25,119.25,0,0,1-.9-93.51A119.59,119.59,0,0,1,219.47,156a125,125,0,0,1,30.17-21.87,125.22,125.22,0,0,0-6.84,13.54,117.42,117.42,0,0,0,.77,91.81,117.86,117.86,0,0,0,25.9,37.11,120.92,120.92,0,0,0,84.37,33.54h1.26a120,120,0,0,0,47-9.75A128.38,128.38,0,0,0,417,292.71,119,119,0,0,1,394.42,323.81ZM429,250.41a92.11,92.11,0,0,1-6.76,7.49,95.11,95.11,0,0,1-30.11,20A97.39,97.39,0,0,1,355,285.36h-1a94.37,94.37,0,0,1-35.5-6.78,95.87,95.87,0,0,1-30.34-19.39,93,93,0,0,1-20.72-29.35,90.83,90.83,0,0,1-7.82-36.6,89.78,89.78,0,0,1,7.12-36.41A93,93,0,0,1,287,127.09a94.73,94.73,0,0,1,7.09-6.33,97.83,97.83,0,0,1,18-11.51l1.15-.57c-.38.49-.77,1-1.14,1.46a90.28,90.28,0,0,0-6.62,10,94.39,94.39,0,0,0-4.68,9.39A85.44,85.44,0,0,0,294,164.27a86.54,86.54,0,0,0,7.36,34.58,88.71,88.71,0,0,0,19.47,27.9A90.57,90.57,0,0,0,384,251.88h.94a89.57,89.57,0,0,0,35.18-7.3,96.37,96.37,0,0,0,9.36-4.72,90.45,90.45,0,0,0,11-7.37A93.2,93.2,0,0,1,429,250.41Zm7.68-50.14a62,62,0,0,1-6.2,7.16A64.64,64.64,0,0,1,410,221a66.35,66.35,0,0,1-25.23,5.07h-.68a64.27,64.27,0,0,1-24.14-4.6,65.09,65.09,0,0,1-20.6-13.16,62.75,62.75,0,0,1-14-19.81,61,61,0,0,1-5.25-24.58,60.29,60.29,0,0,1,4.78-24.44,62.63,62.63,0,0,1,13.6-20.07A65.13,65.13,0,0,1,352.43,109c-.79,1.51-1.53,3-2.21,4.64a60.11,60.11,0,0,0-4.77,24.48,60.85,60.85,0,0,0,5.18,24.41,63.06,63.06,0,0,0,13.85,19.85,65.12,65.12,0,0,0,45.37,18h.68a64.51,64.51,0,0,0,25.31-5.24c2-.88,4-1.86,5.9-2.91A63.81,63.81,0,0,1,436.67,200.27Z"/><path class="cls-1" d="M581.33,152.49h-23.8l-3.2,10.07h-16L560.1,98.48h18.67l21.78,64.08h-16Zm-4.39-13.73-7.51-23.53-7.5,23.53Z"/><path class="cls-1" d="M641,148.83c0,10.52-9.15,15-19,15-9.15,0-16.11-3.48-19.68-10.89l11.9-6.78c1.19,3.48,3.75,5.41,7.78,5.41,3.29,0,5-1,5-2.84,0-5-22.52-2.39-22.52-18.22,0-10,8.42-15,17.93-15,7.42,0,14,3.29,17.85,9.79l-11.71,6.32c-1.28-2.38-3.11-4-6.14-4-2.37,0-3.84.92-3.84,2.57C618.52,135.37,641,131.9,641,148.83Z"/><path class="cls-1" d="M645.55,139.67a24.26,24.26,0,1,1,24.26,24.17A24,24,0,0,1,645.55,139.67Zm34.78,0c0-6.5-4.58-10.8-10.52-10.8s-10.53,4.3-10.53,10.8,4.57,10.81,10.53,10.81S680.33,146.17,680.33,139.67Z"/><path class="cls-1" d="M700,139.67c0-13.63,10.34-24.16,24.25-24.16a23.59,23.59,0,0,1,20.69,11.72l-12,7c-1.55-3.2-4.84-5.12-8.87-5.12-5.95,0-10.35,4.3-10.35,10.61s4.4,10.62,10.35,10.62c4,0,7.41-1.92,8.87-5.12l12,6.86a23.38,23.38,0,0,1-20.69,11.81C710.29,163.84,700,153.31,700,139.67Z"/><path class="cls-1" d="M749.39,104.52a8.24,8.24,0,1,1,8.24,8.24A8.32,8.32,0,0,1,749.39,104.52Zm1.38,12.27h13.72v45.77H750.77Z"/><path class="cls-1" d="M821.9,116.79v45.77H808.17v-4.3c-3,3.47-7.51,5.58-13.64,5.58-12,0-21.88-10.53-21.88-24.17s9.89-24.16,21.88-24.16c6.13,0,10.62,2.11,13.64,5.58v-4.3Zm-13.73,22.88c0-6.86-4.58-11.16-10.9-11.16s-10.89,4.3-10.89,11.16,4.58,11.17,10.89,11.17S808.17,146.54,808.17,139.67Z"/><path class="cls-1" d="M830.07,139.67c0-13.63,10.34-24.16,24.26-24.16A23.56,23.56,0,0,1,875,127.23l-12,7c-1.55-3.2-4.85-5.12-8.87-5.12-6,0-10.35,4.3-10.35,10.61s4.39,10.62,10.35,10.62c4,0,7.41-1.92,8.87-5.12L875,152a23.35,23.35,0,0,1-20.68,11.81C840.41,163.84,830.07,153.31,830.07,139.67Z"/><path class="cls-1" d="M879.53,104.52a8.24,8.24,0,1,1,8.23,8.24A8.32,8.32,0,0,1,879.53,104.52Zm1.37,12.27h13.73v45.77H880.9Z"/><path class="cls-1" d="M902.78,139.67A24.26,24.26,0,1,1,927,163.84,24,24,0,0,1,902.78,139.67Zm34.79,0c0-6.5-4.58-10.8-10.53-10.8s-10.53,4.3-10.53,10.8,4.58,10.81,10.53,10.81S937.57,146.17,937.57,139.67ZM932,110.38,942.6,97.57H926.12l-7.32,12.81Z"/><path class="cls-1" d="M1003.41,134.46v28.1H989.68V136.47c0-5.67-3.57-8.33-8-8.33-5,0-8.51,2.93-8.51,9.43v25H959.47V116.79H973.2v4.3c2.47-3.38,7-5.58,13.09-5.58C995.54,115.51,1003.41,122.1,1003.41,134.46Z"/><path class="cls-1" d="M1034.19,151.39l12.73-7.32c2,3.57,4.11,5.49,9.06,5.49,6.4,0,8.33-3.66,8.33-7.6V98.48H1079V142c0,14.1-9.88,21.88-23.06,21.88C1045.73,163.84,1038.41,159.53,1034.19,151.39Z"/><path class="cls-1" d="M1132.71,116.79v45.77H1119v-4.3c-2.47,3.38-7,5.58-13.09,5.58-9.24,0-17.11-6.59-17.11-19v-28.1h13.72v26.09c0,5.67,3.57,8.33,8,8.33,5,0,8.51-2.93,8.51-9.43v-25Z"/><path class="cls-1" d="M1187.56,116.79l-16.93,45.77h-15.56l-16.93-45.77h15.19l9.52,29,9.52-29Z"/><path class="cls-1" d="M1214.4,151.58a11.93,11.93,0,0,0,8.79-3.49l11,6.32c-4.48,6.22-11.25,9.43-20,9.43-15.65,0-25.35-10.53-25.35-24.17s9.88-24.16,24.34-24.16c13.37,0,23.25,10.34,23.25,24.16a26.44,26.44,0,0,1-.55,5.5h-32.49C1205.16,149.92,1209.37,151.58,1214.4,151.58Zm8.43-16.67c-1.47-5.31-5.59-7.23-9.71-7.23-5.21,0-8.7,2.56-10,7.23Z"/><path class="cls-1" d="M1288.57,134.46v28.1h-13.73V136.47c0-5.67-3.57-8.33-8-8.33-5,0-8.52,2.93-8.52,9.43v25h-13.73V116.79h13.73v4.3c2.47-3.38,7.05-5.58,13.09-5.58C1280.7,115.51,1288.57,122.1,1288.57,134.46Z"/><path class="cls-1" d="M1297,104.52a8.24,8.24,0,1,1,8.24,8.24A8.32,8.32,0,0,1,1297,104.52Zm1.38,12.27h13.73v45.77h-13.73Z"/><path class="cls-1" d="M1322.56,95.74h13.73v66.82h-13.73Z"/><path class="cls-1" d="M581.49,240.41c0-18.85,14-33.32,33.32-33.32a32,32,0,0,1,27.46,14.83l-12.63,7.33c-2.84-4.95-8.33-7.88-14.83-7.88-11.35,0-18.67,7.6-18.67,19s7.32,19,18.67,19c6.5,0,12.08-2.93,14.83-7.87l12.63,7.32c-5.49,9.06-15.75,14.83-27.46,14.83C595.49,273.73,581.49,259.27,581.49,240.41Z"/><path class="cls-1" d="M648.25,214.42a8.24,8.24,0,1,1,8.24,8.24A8.32,8.32,0,0,1,648.25,214.42Zm1.37,12.26h13.73v45.77H649.62Z"/><path class="cls-1" d="M717.37,244.35v28.1H703.64V246.36c0-5.67-3.57-8.32-8-8.32-5,0-8.51,2.92-8.51,9.42v25H673.43V226.68h13.73V231c2.47-3.38,7.05-5.58,13.09-5.58C709.5,225.4,717.37,232,717.37,244.35Z"/><path class="cls-1" d="M750.07,261.47a12,12,0,0,0,8.79-3.48l11,6.31c-4.48,6.23-11.26,9.43-20,9.43-15.66,0-25.36-10.53-25.36-24.17s9.89-24.16,24.35-24.16c13.36,0,23.25,10.34,23.25,24.16a27.06,27.06,0,0,1-.55,5.5h-32.5C740.82,259.82,745,261.47,750.07,261.47Zm8.42-16.66c-1.46-5.31-5.59-7.23-9.7-7.23-5.22,0-8.7,2.56-10,7.23Z"/><path class="cls-1" d="M848.58,244.35v28.1H834.85V245.54c0-4.58-2.2-7.5-6.59-7.5-4.58,0-7.14,3.2-7.14,8.6v25.81H807.39V245.54c0-4.58-2.2-7.5-6.59-7.5-4.58,0-7.14,3.2-7.14,8.6v25.81H779.93V226.68h13.73v4.22c2.11-3.12,6.13-5.5,12.27-5.5,5.4,0,9.43,2.2,12,6,2.56-3.66,6.77-6,13.27-6C841.72,225.4,848.58,232.91,848.58,244.35Z"/><path class="cls-1" d="M905,226.68v45.77H891.27v-4.3c-3,3.48-7.5,5.58-13.64,5.58-12,0-21.87-10.53-21.87-24.17s9.89-24.16,21.87-24.16c6.14,0,10.62,2.11,13.64,5.58v-4.3Zm-13.73,22.88c0-6.86-4.57-11.16-10.89-11.16s-10.89,4.3-10.89,11.16,4.57,11.17,10.89,11.17S891.27,256.43,891.27,249.56Z"/><path class="cls-1" d="M932.49,239.87v16.19c0,3.94,3.39,4.31,9.43,3.94v12.45c-17.94,1.83-23.16-3.57-23.16-16.39V239.87h-7.32V226.68h7.32V218l13.73-4.12v12.81h9.43v13.19Z"/><path class="cls-1" d="M946.51,249.56a24.26,24.26,0,1,1,24.26,24.17A24,24,0,0,1,946.51,249.56Zm34.78,0c0-6.49-4.57-10.79-10.52-10.79s-10.53,4.3-10.53,10.79,4.58,10.81,10.53,10.81S981.29,256.06,981.29,249.56Z"/><path class="cls-1" d="M1049.78,226.68v43.48c0,15.38-12,21.88-24.16,21.88-9.52,0-17.48-3.57-21.69-11.08l11.71-6.77c1.74,3.2,4.4,5.76,10.44,5.76,6.4,0,10.34-3.29,10.34-9.79V266c-3,3.75-7.41,5.95-13.36,5.95-13,0-22.52-10.62-22.52-23.25s9.52-23.25,22.52-23.25c6,0,10.34,2.2,13.36,5.95v-4.67Zm-13.36,22c0-6.31-4.58-10.61-11.08-10.61s-11.07,4.3-11.07,10.61,4.57,10.62,11.07,10.62S1036.42,255,1036.42,248.65Z"/><path class="cls-1" d="M1087.34,225.77v15.56c-5.67-.92-13.73,1.37-13.73,10.43v20.69h-13.73V226.68h13.73v8.15C1075.44,228.7,1081.57,225.77,1087.34,225.77Z"/><path class="cls-1" d="M1139.34,226.68v45.77h-13.73v-4.3c-3,3.48-7.5,5.58-13.64,5.58-12,0-21.87-10.53-21.87-24.17S1100,225.4,1112,225.4c6.14,0,10.62,2.11,13.64,5.58v-4.3Zm-13.73,22.88c0-6.86-4.57-11.16-10.89-11.16s-10.89,4.3-10.89,11.16,4.57,11.17,10.89,11.17S1125.61,256.43,1125.61,249.56Zm-4.94-28.37h-13.18l7.32-12.81h16.48Z"/><path class="cls-1" d="M1191.55,272.45h-13.74V239.87H1166.1v32.58h-13.73V239.87h-6.14V226.68h6.14c0-12.81,7.05-19.59,22.24-19.59a55,55,0,0,1,11.44,1.29V221a104.59,104.59,0,0,0-11.44-.73c-5.13,0-8.51,1.09-8.51,6.4h25.45Z"/><path class="cls-1" d="M1199.35,249.56c0-13.63,10.34-24.16,24.26-24.16a23.57,23.57,0,0,1,20.68,11.72l-12,7c-1.55-3.21-4.85-5.13-8.88-5.13-6,0-10.34,4.3-10.34,10.61s4.39,10.63,10.34,10.63c4,0,7.42-1.93,8.88-5.13l12,6.86a23.35,23.35,0,0,1-20.68,11.81C1209.69,273.73,1199.35,263.2,1199.35,249.56Z"/><path class="cls-1" d="M1295.85,226.68v45.77h-13.73v-4.3c-3,3.48-7.51,5.58-13.64,5.58-12,0-21.87-10.53-21.87-24.17s9.88-24.16,21.87-24.16c6.13,0,10.62,2.11,13.64,5.58v-4.3Zm-13.73,22.88c0-6.86-4.58-11.16-10.89-11.16s-10.9,4.3-10.9,11.16,4.58,11.17,10.9,11.17S1282.12,256.43,1282.12,249.56Z"/><path class="cls-1" d="M686.55,368.25v14.1H649V318.27h14.64v50Z"/><path class="cls-1" d="M739,336.58v45.77H725.29v-4.3c-3,3.47-7.5,5.58-13.64,5.58-12,0-21.87-10.53-21.87-24.17s9.88-24.16,21.87-24.16c6.14,0,10.62,2.11,13.64,5.58v-4.3Zm-13.73,22.88c0-6.86-4.57-11.16-10.89-11.16s-10.89,4.3-10.89,11.16,4.57,11.17,10.89,11.17S725.29,366.33,725.29,359.46Z"/><path class="cls-1" d="M769.26,367.79l12.64-7.32c2.29,5.31,6.22,8.88,13.45,8.88,7,0,8.7-2.75,8.7-5.22,0-3.93-3.67-5.49-13.28-8.14s-18.85-7.23-18.85-19.5S782.35,317,793.43,317c10.52,0,18.76,5,23.43,14.46l-12.35,7.24c-2.2-4.58-5.22-7.42-11.08-7.42-4.58,0-6.87,2.29-6.87,4.85,0,2.93,1.56,4.94,11.54,8,9.7,2.93,20.59,6.31,20.59,19.86,0,12.36-9.88,19.68-23.79,19.68C781.44,383.63,772.83,377.22,769.26,367.79Z"/><path class="cls-1" d="M824.21,324.31a8.24,8.24,0,1,1,8.24,8.24A8.32,8.32,0,0,1,824.21,324.31Zm1.37,12.27h13.73v45.77H825.58Z"/><path class="cls-1" d="M918,354.24v28.11H904.31V355.44c0-4.58-2.2-7.51-6.59-7.51-4.58,0-7.14,3.2-7.14,8.6v25.82H876.85V355.44c0-4.58-2.2-7.51-6.59-7.51-4.58,0-7.14,3.2-7.14,8.6v25.82H849.39V336.58h13.73v4.21c2.11-3.11,6.13-5.49,12.27-5.49,5.4,0,9.43,2.19,12,6,2.56-3.66,6.77-6,13.27-6C911.18,335.3,918,342.8,918,354.24Z"/><path class="cls-1" d="M970.8,336.58v45.77H957.07v-4.3c-2.47,3.38-7.05,5.58-13.09,5.58-9.24,0-17.11-6.59-17.11-18.95v-28.1h13.72v26.09c0,5.67,3.57,8.33,8,8.33,5,0,8.51-2.93,8.51-9.43v-25Z"/><path class="cls-1" d="M980.9,315.53h13.72v66.82H980.9Z"/><path class="cls-1" d="M1051.66,336.58v45.77h-13.73v-4.3c-3,3.47-7.51,5.58-13.64,5.58-12,0-21.87-10.53-21.87-24.17s9.88-24.16,21.87-24.16c6.13,0,10.62,2.11,13.64,5.58v-4.3Zm-13.73,22.88c0-6.86-4.58-11.16-10.89-11.16s-10.89,4.3-10.89,11.16,4.57,11.17,10.89,11.17S1037.93,366.33,1037.93,359.46Z"/><path class="cls-1" d="M1059.47,359.46c0-13.63,10.34-24.16,24.25-24.16A23.59,23.59,0,0,1,1104.41,347l-12,7a9.48,9.48,0,0,0-8.88-5.12c-6,0-10.34,4.3-10.34,10.61s4.39,10.62,10.34,10.62c4,0,7.41-1.92,8.88-5.13l12,6.87a23.38,23.38,0,0,1-20.69,11.81C1069.81,383.63,1059.47,373.1,1059.47,359.46Z"/><path class="cls-1" d="M1108.56,324.31a8.24,8.24,0,1,1,8.23,8.24A8.32,8.32,0,0,1,1108.56,324.31Zm1.37,12.27h13.73v45.77h-13.73Z"/><path class="cls-1" d="M1131.45,359.46a24.26,24.26,0,1,1,24.26,24.17A24,24,0,0,1,1131.45,359.46Zm34.78,0c0-6.5-4.58-10.8-10.52-10.8s-10.53,4.3-10.53,10.8,4.57,10.81,10.53,10.81S1166.23,366,1166.23,359.46Zm-5.58-29.29,10.62-12.81h-16.48l-7.32,12.81Z"/><path class="cls-1" d="M1231.7,354.24v28.11H1218V356.26c0-5.67-3.57-8.33-8-8.33-5,0-8.51,2.93-8.51,9.43v25h-13.73V336.58h13.73v4.3c2.47-3.39,7-5.58,13.09-5.58C1223.83,335.3,1231.7,341.89,1231.7,354.24Z"/></svg>