<svg width="28" height="23" viewBox="0 0 28 23" fill="none" xmlns="http://www.w3.org/2000/svg">
<path d="M27.5 3.08824C26.5062 3.54118 25.435 3.83882 24.325 3.98118C25.4608 3.29529 26.3384 2.20824 26.7514 0.901176C25.6802 1.54824 24.4928 2.00118 23.2409 2.26C22.2213 1.14706 20.7887 0.5 19.1625 0.5C16.1295 0.5 13.6515 2.98471 13.6515 6.05176C13.6515 6.49176 13.7032 6.91882 13.7935 7.32C9.19885 7.08706 5.10755 4.87412 2.38432 1.52235C1.90679 2.33765 1.63576 3.29529 1.63576 4.30471C1.63576 6.23294 2.60373 7.94118 4.10086 8.91176C3.18451 8.91176 2.3327 8.65294 1.58413 8.26471C1.58413 8.26471 1.58413 8.26471 1.58413 8.30353C1.58413 10.9953 3.49426 13.2471 6.0239 13.7518C5.55927 13.8812 5.06883 13.9459 4.56549 13.9459C4.21702 13.9459 3.86855 13.9071 3.53298 13.8424C4.22992 16.0294 6.25621 17.66 8.69551 17.6988C6.81119 19.2 4.42352 20.08 1.81644 20.08C1.37763 20.08 0.938815 20.0541 0.5 20.0024C2.9522 21.5812 5.86902 22.5 8.99235 22.5C19.1625 22.5 24.751 14.0365 24.751 6.69882C24.751 6.45294 24.751 6.22 24.738 5.97412C25.8222 5.19765 26.7514 4.21412 27.5 3.08824Z" fill="black"/>
</svg>
